# File produced by Open Asset Import Library (http://www.assimp.sf.net)
# (assimp v3.0.1262)

mtllib Price_Starburst.stl.obj.mtl

# 276 vertex positions
v  21.0632 52.4586 0
v  17.5979 37.7311 0
v  1.95602 48.8008 0
v  32.917 57.4978 0
v  21.0632 52.4586 0
v  3.53605 71.5172 0
v  21.0632 52.4586 0
v  32.917 57.4978 0
v  25.828 29.6936 0
v  17.5979 37.7311 0
v  25.828 29.6936 0
v  1.95601 27.3834 0
v  25.828 29.6936 0
v  17.5979 37.7311 0
v  21.0632 52.4586 0
v  25.828 29.6936 0
v  34.6356 23.6294 0
v  21.8333 16.5544 0
v  34.6356 23.6294 0
v  25.828 29.6936 0
v  32.917 57.4978 0
v  34.6356 23.6294 0
v  32.917 57.4978 0
v  37.2421 71.8154 0
v  34.6356 23.6294 0
v  37.2421 71.8154 0
v  37.9564 2.01948 0
v  37.9564 2.01948 0
v  37.2421 71.8154 0
v  47.8311 59.2875 0
v  37.9564 2.01948 0
v  47.8311 59.2875 0
v  46.9084 26.0358 0
v  46.9084 26.0358 0
v  47.8311 59.2875 0
v  58.315 8.85378 0
v  58.315 8.85378 0
v  47.8311 59.2875 0
v  62.4059 60.833 0
v  62.4059 60.833 0
v  47.8311 59.2875 0
v  64.0875 80.1674 0
v  58.315 8.85378 0
v  62.4059 60.833 0
v  61.9246 27.8166 0
v  73.4275 53.4693 0
v  77.5665 42.2552 0
v  74.005 33.4477 0
v  77.5665 42.2552 0
v  73.4275 53.4693 0
v  92.2459 50.5334 0
v  93.786 32.2926 0
v  74.005 33.4477 0
v  77.5665 42.2552 0
v  80.9356 63.9614 0
v  73.4275 53.4693 0
v  62.4059 60.833 0
v  62.4059 60.833 0
v  79.5398 14.533 0
v  61.9246 27.8166 0
v  79.5398 14.533 0
v  62.4059 60.833 0
v  74.005 33.4477 0
v  74.005 33.4477 0
v  62.4059 60.833 0
v  73.4275 53.4693 0
v  25.828 29.6936 3
v  17.5979 37.7311 3
v  1.95601 27.3834 3
v  17.5979 37.7311 3
v  25.828 29.6936 3
v  21.0632 52.4586 3
v  34.6356 23.6294 3
v  25.828 29.6936 3
v  21.8333 16.5544 3
v  25.828 29.6936 3
v  34.6356 23.6294 3
v  32.917 57.4978 3
v  32.917 57.4978 3
v  34.6356 23.6294 3
v  37.2421 71.8154 3
v  37.2421 71.8154 3
v  34.6356 23.6294 3
v  37.9564 2.01948 3
v  37.2421 71.8154 3
v  37.9564 2.01948 3
v  47.8311 59.2875 3
v  47.8311 59.2875 3
v  37.9564 2.01948 3
v  46.9084 26.0358 3
v  47.8311 59.2875 3
v  46.9084 26.0358 3
v  58.315 8.85378 3
v  47.8311 59.2875 3
v  58.315 8.85378 3
v  62.4059 60.833 3
v  47.8311 59.2875 3
v  62.4059 60.833 3
v  64.0875 80.1674 3
v  62.4059 60.833 3
v  58.315 8.85378 3
v  61.9246 27.8166 3
v  21.0632 52.4586 3
v  32.917 57.4978 3
v  3.53605 71.5172 3
v  32.917 57.4978 3
v  21.0632 52.4586 3
v  25.828 29.6936 3
v  21.0632 52.4586 3
v  1.95602 48.8008 3
v  17.5979 37.7311 3
v  79.5398 14.533 3
v  62.4059 60.833 3
v  61.9246 27.8166 3
v  62.4059 60.833 3
v  79.5398 14.533 3
v  74.005 33.4477 3
v  62.4059 60.833 3
v  74.005 33.4477 3
v  73.4275 53.4693 3
v  93.786 32.2926 3
v  77.5665 42.2552 3
v  74.005 33.4477 3
v  73.4275 53.4693 3
v  77.5665 42.2552 3
v  92.2459 50.5334 3
v  77.5665 42.2552 3
v  73.4275 53.4693 3
v  74.005 33.4477 3
v  80.9356 63.9614 3
v  62.4059 60.833 3
v  73.4275 53.4693 3
v  3.53605 71.5172 3
v  21.0632 52.4586 0
v  21.0632 52.4586 3
v  21.0632 52.4586 0
v  3.53605 71.5172 3
v  3.53605 71.5172 0
v  3.53605 71.5172 3
v  32.917 57.4978 0
v  3.53605 71.5172 0
v  32.917 57.4978 0
v  3.53605 71.5172 3
v  32.917 57.4978 3
v  37.2421 71.8154 3
v  32.917 57.4978 0
v  32.917 57.4978 3
v  32.917 57.4978 0
v  37.2421 71.8154 3
v  37.2421 71.8154 0
v  37.2421 71.8154 0
v  47.8311 59.2875 3
v  47.8311 59.2875 0
v  47.8311 59.2875 3
v  37.2421 71.8154 0
v  37.2421 71.8154 3
v  64.0875 80.1674 3
v  47.8311 59.2875 0
v  47.8311 59.2875 3
v  47.8311 59.2875 0
v  64.0875 80.1674 3
v  64.0875 80.1674 0
v  64.0875 80.1674 0
v  62.4059 60.833 3
v  62.4059 60.833 0
v  62.4059 60.833 3
v  64.0875 80.1674 0
v  64.0875 80.1674 3
v  62.4059 60.833 3
v  80.9356 63.9614 0
v  62.4059 60.833 0
v  80.9356 63.9614 0
v  62.4059 60.833 3
v  80.9356 63.9614 3
v  80.9356 63.9614 0
v  73.4275 53.4693 3
v  73.4275 53.4693 0
v  73.4275 53.4693 3
v  80.9356 63.9614 0
v  80.9356 63.9614 3
v  73.4275 53.4693 3
v  92.2459 50.5334 0
v  73.4275 53.4693 0
v  92.2459 50.5334 0
v  73.4275 53.4693 3
v  92.2459 50.5334 3
v  92.2459 50.5334 3
v  77.5665 42.2552 0
v  92.2459 50.5334 0
v  77.5665 42.2552 0
v  92.2459 50.5334 3
v  77.5665 42.2552 3
v  77.5665 42.2552 3
v  93.786 32.2926 0
v  77.5665 42.2552 0
v  93.786 32.2926 0
v  77.5665 42.2552 3
v  93.786 32.2926 3
v  93.786 32.2926 3
v  74.005 33.4477 0
v  93.786 32.2926 0
v  74.005 33.4477 0
v  93.786 32.2926 3
v  74.005 33.4477 3
v  74.005 33.4477 0
v  79.5398 14.533 3
v  79.5398 14.533 0
v  79.5398 14.533 3
v  74.005 33.4477 0
v  74.005 33.4477 3
v  79.5398 14.533 3
v  61.9246 27.8166 0
v  79.5398 14.533 0
v  61.9246 27.8166 0
v  79.5398 14.533 3
v  61.9246 27.8166 3
v  61.9246 27.8166 0
v  58.315 8.85378 3
v  58.315 8.85378 0
v  58.315 8.85378 3
v  61.9246 27.8166 0
v  61.9246 27.8166 3
v  46.9084 26.0358 3
v  58.315 8.85378 0
v  58.315 8.85378 3
v  58.315 8.85378 0
v  46.9084 26.0358 3
v  46.9084 26.0358 0
v  46.9084 26.0358 0
v  37.9564 2.01948 3
v  37.9564 2.01948 0
v  37.9564 2.01948 3
v  46.9084 26.0358 0
v  46.9084 26.0358 3
v  34.6356 23.6294 3
v  37.9564 2.01948 0
v  37.9564 2.01948 3
v  37.9564 2.01948 0
v  34.6356 23.6294 3
v  34.6356 23.6294 0
v  34.6356 23.6294 3
v  21.8333 16.5544 0
v  34.6356 23.6294 0
v  21.8333 16.5544 0
v  34.6356 23.6294 3
v  21.8333 16.5544 3
v  25.828 29.6936 3
v  21.8333 16.5544 0
v  21.8333 16.5544 3
v  21.8333 16.5544 0
v  25.828 29.6936 3
v  25.828 29.6936 0
v  25.828 29.6936 3
v  1.95601 27.3834 0
v  25.828 29.6936 0
v  1.95601 27.3834 0
v  25.828 29.6936 3
v  1.95601 27.3834 3
v  1.95601 27.3834 3
v  17.5979 37.7311 0
v  1.95601 27.3834 0
v  17.5979 37.7311 0
v  1.95601 27.3834 3
v  17.5979 37.7311 3
v  17.5979 37.7311 3
v  1.95602 48.8008 0
v  17.5979 37.7311 0
v  1.95602 48.8008 0
v  17.5979 37.7311 3
v  1.95602 48.8008 3
v  1.95602 48.8008 3
v  21.0632 52.4586 0
v  1.95602 48.8008 0
v  21.0632 52.4586 0
v  1.95602 48.8008 3
v  21.0632 52.4586 3

# 0 UV coordinates

# 276 vertex normals
vn 0 0 -1
vn 0 0 -1
vn 0 0 -1
vn 0 0 -1
vn 0 0 -1
vn 0 0 -1
vn 0 0 -1
vn 0 0 -1
vn 0 0 -1
vn 0 0 -1
vn 0 0 -1
vn 0 0 -1
vn 0 0 -1
vn 0 0 -1
vn 0 0 -1
vn 0 0 -1
vn 0 0 -1
vn 0 0 -1
vn 0 0 -1
vn 0 0 -1
vn 0 0 -1
vn 0 0 -1
vn 0 0 -1
vn 0 0 -1
vn 0 0 -1
vn 0 0 -1
vn 0 0 -1
vn 0 0 -1
vn 0 0 -1
vn 0 0 -1
vn 0 0 -1
vn 0 0 -1
vn 0 0 -1
vn 0 0 -1
vn 0 0 -1
vn 0 0 -1
vn 0 0 -1
vn 0 0 -1
vn 0 0 -1
vn 0 0 -1
vn 0 0 -1
vn 0 0 -1
vn 0 0 -1
vn 0 0 -1
vn 0 0 -1
vn 0 0 -1
vn 0 0 -1
vn 0 0 -1
vn 0 0 -1
vn 0 0 -1
vn 0 0 -1
vn 0 0 -1
vn 0 0 -1
vn 0 0 -1
vn 0 0 -1
vn 0 0 -1
vn 0 0 -1
vn 0 0 -1
vn 0 0 -1
vn 0 0 -1
vn 0 0 -1
vn 0 0 -1
vn 0 0 -1
vn 0 0 -1
vn 0 0 -1
vn 0 0 -1
vn 0 0 1
vn 0 0 1
vn 0 0 1
vn 0 0 1
vn 0 0 1
vn 0 0 1
vn 0 0 1
vn 0 0 1
vn 0 0 1
vn 0 0 1
vn 0 0 1
vn 0 0 1
vn 0 0 1
vn 0 0 1
vn 0 0 1
vn 0 0 1
vn 0 0 1
vn 0 0 1
vn 0 0 1
vn 0 0 1
vn 0 0 1
vn 0 0 1
vn 0 0 1
vn 0 0 1
vn 0 0 1
vn 0 0 1
vn 0 0 1
vn 0 0 1
vn 0 0 1
vn 0 0 1
vn 0 0 1
vn 0 0 1
vn 0 0 1
vn 0 0 1
vn 0 0 1
vn 0 0 1
vn 0 0 1
vn 0 0 1
vn 0 0 1
vn 0 0 1
vn 0 0 1
vn 0 0 1
vn 0 0 1
vn 0 0 1
vn 0 0 1
vn 0 0 1
vn 0 0 1
vn 0 0 1
vn 0 0 1
vn 0 0 1
vn 0 0 1
vn 0 0 1
vn 0 0 1
vn 0 0 1
vn 0 0 1
vn 0 0 1
vn 0 0 1
vn 0 0 1
vn 0 0 1
vn 0 0 1
vn 0 0 1
vn 0 0 1
vn 0 0 1
vn 0 0 1
vn 0 0 1
vn 0 0 1
vn -0.736061 -0.676915 0
vn -0.736061 -0.676915 0
vn -0.736061 -0.676915 0
vn -0.736061 -0.676915 0
vn -0.736061 -0.676915 0
vn -0.736061 -0.676915 0
vn 0.430645 0.902521 0
vn 0.430645 0.902521 0
vn 0.430645 0.902521 0
vn 0.430645 0.902521 0
vn 0.430645 0.902521 0
vn 0.430645 0.902521 0
vn -0.957276 0.289177 0
vn -0.957276 0.289177 0
vn -0.957276 0.289177 0
vn -0.957276 0.289177 0
vn -0.957276 0.289177 0
vn -0.957276 0.289177 0
vn 0.763731 0.645534 0
vn 0.763731 0.645534 0
vn 0.763731 0.645534 0
vn 0.763731 0.645534 0
vn 0.763731 0.645534 0
vn 0.763731 0.645534 0
vn -0.789049 0.614331 0
vn -0.789049 0.614331 0
vn -0.789049 0.614331 0
vn -0.789049 0.614331 0
vn -0.789049 0.614331 0
vn -0.789049 0.614331 0
vn 0.996239 -0.0866481 0
vn 0.996239 -0.0866481 0
vn 0.996239 -0.0866481 0
vn 0.996239 -0.0866481 0
vn 0.996239 -0.0866481 0
vn 0.996239 -0.0866481 0
vn -0.166475 0.986046 0
vn -0.166475 0.986046 0
vn -0.166475 0.986046 0
vn -0.166475 0.986046 0
vn -0.166475 0.986046 0
vn -0.166475 0.986046 0
vn 0.813229 -0.581944 0
vn 0.813229 -0.581944 0
vn 0.813229 -0.581944 0
vn 0.813229 -0.581944 0
vn 0.813229 -0.581944 0
vn 0.813229 -0.581944 0
vn 0.154146 0.988048 0
vn 0.154146 0.988048 0
vn 0.154146 0.988048 0
vn 0.154146 0.988048 0
vn 0.154146 0.988048 0
vn 0.154146 0.988048 0
vn 0.49121 -0.871041 0
vn 0.49121 -0.871041 0
vn 0.49121 -0.871041 0
vn 0.49121 -0.871041 0
vn 0.49121 -0.871041 0
vn 0.49121 -0.871041 0
vn 0.523391 0.852092 0
vn 0.523391 0.852092 0
vn 0.523391 0.852092 0
vn 0.523391 0.852092 0
vn 0.523391 0.852092 0
vn 0.523391 0.852092 0
vn -0.0582951 -0.998299 0
vn -0.0582951 -0.998299 0
vn -0.0582951 -0.998299 0
vn -0.0582951 -0.998299 0
vn -0.0582951 -0.998299 0
vn -0.0582951 -0.998299 0
vn 0.959753 0.280844 0
vn 0.959753 0.280844 0
vn 0.959753 0.280844 0
vn 0.959753 0.280844 0
vn 0.959753 0.280844 0
vn 0.959753 0.280844 0
vn -0.602092 -0.798427 0
vn -0.602092 -0.798427 0
vn -0.602092 -0.798427 0
vn -0.602092 -0.798427 0
vn -0.602092 -0.798427 0
vn -0.602092 -0.798427 0
vn 0.98236 -0.186998 0
vn 0.98236 -0.186998 0
vn 0.98236 -0.186998 0
vn 0.98236 -0.186998 0
vn 0.98236 -0.186998 0
vn 0.98236 -0.186998 0
vn -0.833126 -0.553084 0
vn -0.833126 -0.553084 0
vn -0.833126 -0.553084 0
vn -0.833126 -0.553084 0
vn -0.833126 -0.553084 0
vn -0.833126 -0.553084 0
vn 0.937022 -0.349271 0
vn 0.937022 -0.349271 0
vn 0.937022 -0.349271 0
vn 0.937022 -0.349271 0
vn 0.937022 -0.349271 0
vn 0.937022 -0.349271 0
vn -0.988397 -0.151892 0
vn -0.988397 -0.151892 0
vn -0.988397 -0.151892 0
vn -0.988397 -0.151892 0
vn -0.988397 -0.151892 0
vn -0.988397 -0.151892 0
vn 0.483686 -0.875242 0
vn 0.483686 -0.875242 0
vn 0.483686 -0.875242 0
vn 0.483686 -0.875242 0
vn 0.483686 -0.875242 0
vn 0.483686 -0.875242 0
vn -0.956759 0.290883 0
vn -0.956759 0.290883 0
vn -0.956759 0.290883 0
vn -0.956759 0.290883 0
vn -0.956759 0.290883 0
vn -0.956759 0.290883 0
vn 0.096324 -0.99535 0
vn 0.096324 -0.99535 0
vn 0.096324 -0.99535 0
vn 0.096324 -0.99535 0
vn 0.096324 -0.99535 0
vn 0.096324 -0.99535 0
vn -0.551736 0.834019 0
vn -0.551736 0.834019 0
vn -0.551736 0.834019 0
vn -0.551736 0.834019 0
vn -0.551736 0.834019 0
vn -0.551736 0.834019 0
vn -0.577669 -0.816271 0
vn -0.577669 -0.816271 0
vn -0.577669 -0.816271 0
vn -0.577669 -0.816271 0
vn -0.577669 -0.816271 0
vn -0.577669 -0.816271 0
vn -0.188021 0.982165 0
vn -0.188021 0.982165 0
vn -0.188021 0.982165 0
vn -0.188021 0.982165 0
vn -0.188021 0.982165 0
vn -0.188021 0.982165 0

# Mesh 'Price' with 92 faces
g Price
usemtl DefaultMaterial
f  1//1 2//2 3//3
f  4//4 5//5 6//6
f  7//7 8//8 9//9
f  10//10 11//11 12//12
f  13//13 14//14 15//15
f  16//16 17//17 18//18
f  19//19 20//20 21//21
f  22//22 23//23 24//24
f  25//25 26//26 27//27
f  28//28 29//29 30//30
f  31//31 32//32 33//33
f  34//34 35//35 36//36
f  37//37 38//38 39//39
f  40//40 41//41 42//42
f  43//43 44//44 45//45
f  46//46 47//47 48//48
f  49//49 50//50 51//51
f  52//52 53//53 54//54
f  55//55 56//56 57//57
f  58//58 59//59 60//60
f  61//61 62//62 63//63
f  64//64 65//65 66//66
f  67//67 68//68 69//69
f  70//70 71//71 72//72
f  73//73 74//74 75//75
f  76//76 77//77 78//78
f  79//79 80//80 81//81
f  82//82 83//83 84//84
f  85//85 86//86 87//87
f  88//88 89//89 90//90
f  91//91 92//92 93//93
f  94//94 95//95 96//96
f  97//97 98//98 99//99
f  100//100 101//101 102//102
f  103//103 104//104 105//105
f  106//106 107//107 108//108
f  109//109 110//110 111//111
f  112//112 113//113 114//114
f  115//115 116//116 117//117
f  118//118 119//119 120//120
f  121//121 122//122 123//123
f  124//124 125//125 126//126
f  127//127 128//128 129//129
f  130//130 131//131 132//132
f  133//133 134//134 135//135
f  136//136 137//137 138//138
f  139//139 140//140 141//141
f  142//142 143//143 144//144
f  145//145 146//146 147//147
f  148//148 149//149 150//150
f  151//151 152//152 153//153
f  154//154 155//155 156//156
f  157//157 158//158 159//159
f  160//160 161//161 162//162
f  163//163 164//164 165//165
f  166//166 167//167 168//168
f  169//169 170//170 171//171
f  172//172 173//173 174//174
f  175//175 176//176 177//177
f  178//178 179//179 180//180
f  181//181 182//182 183//183
f  184//184 185//185 186//186
f  187//187 188//188 189//189
f  190//190 191//191 192//192
f  193//193 194//194 195//195
f  196//196 197//197 198//198
f  199//199 200//200 201//201
f  202//202 203//203 204//204
f  205//205 206//206 207//207
f  208//208 209//209 210//210
f  211//211 212//212 213//213
f  214//214 215//215 216//216
f  217//217 218//218 219//219
f  220//220 221//221 222//222
f  223//223 224//224 225//225
f  226//226 227//227 228//228
f  229//229 230//230 231//231
f  232//232 233//233 234//234
f  235//235 236//236 237//237
f  238//238 239//239 240//240
f  241//241 242//242 243//243
f  244//244 245//245 246//246
f  247//247 248//248 249//249
f  250//250 251//251 252//252
f  253//253 254//254 255//255
f  256//256 257//257 258//258
f  259//259 260//260 261//261
f  262//262 263//263 264//264
f  265//265 266//266 267//267
f  268//268 269//269 270//270
f  271//271 272//272 273//273
f  274//274 275//275 276//276

